<svg xmlns="http://www.w3.org/2000/svg" xmlns:xlink="http://www.w3.org/1999/xlink" width="463" zoomAndPan="magnify" viewBox="0 0 347.25 195.749994" height="261" preserveAspectRatio="xMidYMid meet" version="1.0"><defs><g/><clipPath id="9a1130e301"><path d="M 229 49 L 346.5 49 L 346.5 177 L 229 177 Z M 229 49 " clip-rule="nonzero"/></clipPath></defs><path stroke-linecap="butt" transform="matrix(0.748384, 0, 0, 0.748384, 24.397155, 12.284781)" fill="none" stroke-linejoin="miter" d="M 128.580913 106.297302 L 131.008019 106.297302 L 121.894627 91.452808 L 121.894627 56.91483 L 164.277638 56.91483 L 164.277638 170.999248 L 121.419645 170.999248 L 91.735879 123.725488 L 89.146966 123.725488 L 98.422164 138.726569 L 98.422164 170.999248 L 56.039153 170.999248 L 56.039153 56.91483 L 96.788435 56.91483 Z M 128.580913 106.297302 " stroke="#cee7f0" stroke-width="12.224925" stroke-opacity="1" stroke-miterlimit="4"/><g fill="#ffffff" fill-opacity="1"><g transform="translate(64.996965, 140.258375)"><g><path d="M 55.625 -48.421875 L 57.453125 -48.421875 L 50.625 -59.53125 L 50.625 -85.390625 L 82.34375 -85.390625 L 82.34375 0 L 50.25 0 L 28.0625 -35.375 L 26.109375 -35.375 L 33.0625 -24.15625 L 33.0625 0 L 1.34375 0 L 1.34375 -85.390625 L 31.84375 -85.390625 Z M 55.625 -48.421875 "/></g></g></g><path stroke-linecap="butt" transform="matrix(0.748384, 0, 0, 0.748384, 125.535209, 22.610838)" fill="none" stroke-linejoin="miter" d="M 34.172537 57.429113 L 63.376102 57.429113 L 63.376102 123.99967 L 34.172537 123.99967 Z M 34.172537 57.429113 " stroke="#cee7f0" stroke-width="8.900025" stroke-opacity="1" stroke-miterlimit="4"/><g fill="#ffffff" fill-opacity="1"><g transform="translate(150.220174, 115.410403)"><g><path d="M 0.890625 -49.8125 L 22.734375 -49.8125 L 22.734375 0 L 0.890625 0 Z M 0.890625 -49.8125 "/></g></g></g><path stroke-linecap="butt" transform="matrix(0.748384, 0, 0, 0.748384, 153.755686, 45.829849)" fill="none" stroke-linejoin="miter" d="M 53.331317 55.544495 C 58.081137 55.544495 62.569978 56.431824 66.80306 58.211701 C 71.030922 59.986359 74.747265 62.439563 77.952088 65.566093 C 81.162132 68.697843 83.709288 72.35677 85.603997 76.548095 C 87.514364 80.73942 88.511304 85.202163 88.584378 89.931105 L 59.271202 89.931105 C 59.114615 88.443524 58.477826 87.206483 57.355615 86.225201 C 56.254283 85.217822 54.912851 84.716742 53.331317 84.716742 C 51.67149 84.716742 50.241324 85.316994 49.04082 86.512279 C 47.866414 87.691904 47.276601 89.111631 47.276601 90.771458 C 47.276601 92.431285 47.866414 93.861451 49.04082 95.056735 C 50.241324 96.236361 51.67149 96.826174 53.331317 96.826174 C 54.912851 96.826174 56.254283 96.335533 57.355615 95.349032 C 58.477826 94.362531 59.114615 93.12027 59.271202 91.611811 L 88.584378 91.611811 C 88.511304 96.361631 87.514364 100.834813 85.603997 105.026138 C 83.709288 109.217463 81.162132 112.912928 77.952088 116.117751 C 74.747265 119.327795 71.030922 121.838414 66.80306 123.654829 C 62.569978 125.466024 58.081137 126.374231 53.331317 126.374231 C 48.518862 126.374231 43.972605 125.450365 39.687328 123.592194 C 35.417709 121.723583 31.65961 119.145109 28.418249 115.861992 C 25.171669 112.578874 22.640171 108.779018 20.823756 104.472862 C 19.012561 100.166707 18.104354 95.599572 18.104354 90.771458 C 18.104354 85.86505 19.012561 81.297915 20.823756 77.070054 C 22.640171 72.836972 25.171669 69.10497 28.418249 65.85839 C 31.65961 62.61181 35.417709 60.085532 39.687328 58.269117 C 43.972605 56.452702 48.518862 55.544495 53.331317 55.544495 Z M 53.331317 55.544495 " stroke="#cee7f0" stroke-width="8.900025" stroke-opacity="1" stroke-miterlimit="4"/><g fill="#ffffff" fill-opacity="1"><g transform="translate(166.501594, 138.629414)"><g><path d="M 27.171875 -51.234375 C 30.722656 -51.234375 34.082031 -50.566406 37.25 -49.234375 C 40.414062 -47.898438 43.195312 -46.0625 45.59375 -43.71875 C 47.988281 -41.382812 49.894531 -38.648438 51.3125 -35.515625 C 52.738281 -32.378906 53.484375 -29.035156 53.546875 -25.484375 L 31.609375 -25.484375 C 31.492188 -26.609375 31.019531 -27.539062 30.1875 -28.28125 C 29.363281 -29.019531 28.359375 -29.390625 27.171875 -29.390625 C 25.929688 -29.390625 24.863281 -28.945312 23.96875 -28.0625 C 23.082031 -27.175781 22.640625 -26.109375 22.640625 -24.859375 C 22.640625 -23.617188 23.082031 -22.550781 23.96875 -21.65625 C 24.863281 -20.769531 25.929688 -20.328125 27.171875 -20.328125 C 28.359375 -20.328125 29.363281 -20.695312 30.1875 -21.4375 C 31.019531 -22.175781 31.492188 -23.109375 31.609375 -24.234375 L 53.546875 -24.234375 C 53.484375 -20.679688 52.738281 -17.335938 51.3125 -14.203125 C 49.894531 -11.066406 47.988281 -8.300781 45.59375 -5.90625 C 43.195312 -3.507812 40.414062 -1.628906 37.25 -0.265625 C 34.082031 1.097656 30.722656 1.78125 27.171875 1.78125 C 23.554688 1.78125 20.148438 1.085938 16.953125 -0.296875 C 13.765625 -1.691406 10.957031 -3.617188 8.53125 -6.078125 C 6.101562 -8.535156 4.207031 -11.378906 2.84375 -14.609375 C 1.476562 -17.835938 0.796875 -21.253906 0.796875 -24.859375 C 0.796875 -28.535156 1.476562 -31.957031 2.84375 -35.125 C 4.207031 -38.289062 6.101562 -41.085938 8.53125 -43.515625 C 10.957031 -45.941406 13.765625 -47.832031 16.953125 -49.1875 C 20.148438 -50.550781 23.554688 -51.234375 27.171875 -51.234375 Z M 27.171875 -51.234375 "/></g></g></g><path stroke-linecap="butt" transform="matrix(0.734459, 0.143696, -0.143696, 0.734459, 299.259274, 63.63828)" fill="none" stroke-linejoin="miter" d="M 8.171847 18.99778 L 1.454631 18.998317 L 1.451118 2.724261 L 7.891943 2.724614 C 9.881908 2.728852 11.318311 3.165824 12.20416 4.050899 C 12.865735 4.713926 13.199694 5.632518 13.198911 6.797432 C 13.199131 7.722815 12.992114 8.513233 12.572739 9.169686 C 12.152361 9.821016 11.560938 10.250522 10.796466 10.447957 C 11.846013 10.620231 12.650906 11.037157 13.2009 11.70074 C 13.755015 12.358198 14.033964 13.213093 14.032624 14.266427 C 14.036519 15.047491 13.893422 15.729668 13.619703 16.315075 C 13.339859 16.896362 12.994982 17.362728 12.586075 17.719295 C 12.113583 18.104257 11.589309 18.387661 11.014257 18.574629 C 10.443325 18.755473 9.90335 18.877074 9.392329 18.929188 C 8.890551 18.974175 8.480976 19.001122 8.171847 18.99778 Z M 4.520799 5.474363 L 4.518337 9.485027 L 7.703951 9.484034 C 8.480894 9.486264 9.079443 9.310654 9.495477 8.96333 C 9.906388 8.617009 10.111177 8.114229 10.110845 7.460113 C 10.113519 6.821364 9.920983 6.353772 9.532234 6.052214 C 9.095712 5.669587 8.318547 5.475934 7.206861 5.475373 Z M 4.522227 11.978662 L 4.517648 16.250349 L 7.783105 16.249691 C 8.197691 16.248356 8.648244 16.213391 9.129645 16.145798 C 9.610042 16.073083 10.016165 15.892573 10.349014 15.609391 C 10.547232 15.453602 10.693445 15.249483 10.791775 14.990911 C 10.890105 14.732338 10.939549 14.414189 10.939104 14.031341 C 10.940777 13.38747 10.797349 12.926225 10.502697 12.643487 C 10.212166 12.354624 9.847469 12.176005 9.417851 12.100503 C 8.982108 12.020881 8.554383 11.982238 8.12855 11.980455 Z M 4.522227 11.978662 " stroke="#cee7f0" stroke-width="1.600005" stroke-opacity="1" stroke-miterlimit="4"/><path stroke-linecap="butt" transform="matrix(0.664105, 0.345026, -0.345026, 0.664105, 316.163068, 68.366091)" fill="none" stroke-linejoin="miter" d="M 1.45422 2.728264 L 4.519506 2.729756 L 4.519668 18.999226 L 1.454382 18.997734 Z M 1.45422 2.728264 " stroke="#cee7f0" stroke-width="1.600005" stroke-opacity="1" stroke-miterlimit="4"/><g fill="#ffffff" fill-opacity="1"><g transform="translate(296.529048, 77.592993)"><g><path d="M 6 1.171875 L 1.0625 0.203125 L 3.40625 -11.75 L 8.140625 -10.8125 C 9.597656 -10.53125 10.585938 -10.003906 11.109375 -9.234375 C 11.503906 -8.640625 11.617188 -7.914062 11.453125 -7.0625 C 11.316406 -6.375 11.046875 -5.820312 10.640625 -5.40625 C 10.234375 -4.988281 9.738281 -4.765625 9.15625 -4.734375 C 9.90625 -4.460938 10.429688 -4.039062 10.734375 -3.46875 C 11.046875 -2.90625 11.128906 -2.238281 10.984375 -1.46875 C 10.867188 -0.894531 10.671875 -0.410156 10.390625 -0.015625 C 10.109375 0.378906 9.789062 0.675781 9.4375 0.875 C 9.03125 1.082031 8.597656 1.210938 8.140625 1.265625 C 7.691406 1.316406 7.28125 1.320312 6.90625 1.28125 C 6.53125 1.25 6.226562 1.210938 6 1.171875 Z M 5.265625 -9.28125 L 4.703125 -6.34375 L 7.03125 -5.890625 C 7.601562 -5.773438 8.0625 -5.816406 8.40625 -6.015625 C 8.757812 -6.210938 8.984375 -6.550781 9.078125 -7.03125 C 9.171875 -7.5 9.097656 -7.863281 8.859375 -8.125 C 8.585938 -8.476562 8.046875 -8.738281 7.234375 -8.90625 Z M 4.34375 -4.5 L 3.71875 -1.375 L 6.109375 -0.90625 C 6.410156 -0.851562 6.742188 -0.8125 7.109375 -0.78125 C 7.472656 -0.757812 7.800781 -0.832031 8.09375 -1 C 8.257812 -1.09375 8.394531 -1.222656 8.5 -1.390625 C 8.613281 -1.566406 8.695312 -1.796875 8.75 -2.078125 C 8.84375 -2.546875 8.800781 -2.90625 8.625 -3.15625 C 8.445312 -3.40625 8.207031 -3.585938 7.90625 -3.703125 C 7.601562 -3.828125 7.296875 -3.921875 6.984375 -3.984375 Z M 4.34375 -4.5 "/></g></g></g><g fill="#ffffff" fill-opacity="1"><g transform="translate(309.607575, 80.98408)"><g><path d="M 3.015625 1.5625 L 0.953125 0.5 L 6.578125 -10.3125 L 8.640625 -9.25 Z M 3.015625 1.5625 "/></g></g></g><path stroke-linecap="butt" transform="matrix(0.748384, 0, 0, 0.748384, 217.92227, 45.829849)" fill="none" stroke-linejoin="miter" d="M 38.749654 40.830491 L 67.953219 40.830491 L 67.953219 123.999321 L 38.749654 123.999321 Z M 38.749654 40.830491 " stroke="#cee7f0" stroke-width="8.900025" stroke-opacity="1" stroke-miterlimit="4"/><g fill="#ffffff" fill-opacity="1"><g transform="translate(246.033429, 138.629414)"><g><path d="M 0.890625 -62.25 L 22.734375 -62.25 L 22.734375 0 L 0.890625 0 Z M 0.890625 -62.25 "/></g></g></g><g clip-path="url(#9a1130e301)"><path stroke-linecap="butt" transform="matrix(0.748384, 0, 0, 0.748384, 257.850683, 45.829849)" fill="none" stroke-linejoin="miter" d="M 50.829471 93.986721 C 52.583251 93.041976 53.616729 91.716202 53.929904 90.019838 C 54.237859 88.297376 53.862049 86.752379 52.797254 85.384849 C 51.737679 83.99122 49.978679 83.297016 47.525476 83.297016 C 45.458521 83.218722 43.892646 83.798096 42.833071 85.035137 C 41.768276 86.251299 41.22022 87.671026 41.183683 89.294316 C 41.141926 90.917606 41.616908 92.363431 42.603409 93.642228 C 43.584691 94.894928 45.150566 95.521278 47.295814 95.521278 L 80.86817 95.521278 L 80.86817 123.999321 L 47.295814 123.999321 C 42.540774 123.999321 38.109349 123.111992 33.996317 121.337334 C 29.883286 119.557456 26.240018 117.083374 23.07695 113.920307 C 19.908664 110.75202 17.434582 107.108752 15.659924 102.995721 C 13.880046 98.882689 12.992717 94.451264 12.992717 89.701444 C 12.992717 83.464042 14.391565 77.774697 17.194481 72.638628 C 20.013055 67.48168 24.011256 63.347771 29.189082 60.236899 C 34.361688 57.110369 40.515576 55.507958 47.640306 55.429664 C 51.35143 55.429664 55.088651 55.784595 58.85197 56.499678 C 62.620509 57.193883 66.164605 58.540535 69.48426 60.529196 C 72.809134 62.496979 75.570293 65.425165 77.767738 69.303315 C 78.717702 70.968361 79.401467 72.946583 79.829473 75.2432 C 80.273137 77.524157 80.434944 79.86775 80.320113 82.284417 C 80.205283 84.695864 79.709422 86.955943 78.842972 89.064654 C 77.971301 91.147268 76.629868 92.791436 74.813454 93.986721 Z M 50.829471 93.986721 " stroke="#cee7f0" stroke-width="8.900025" stroke-opacity="1" stroke-miterlimit="4"/></g><g fill="#ffffff" fill-opacity="1"><g transform="translate(266.772818, 138.629414)"><g><path d="M 29.125 -22.46875 C 30.425781 -23.175781 31.195312 -24.164062 31.4375 -25.4375 C 31.675781 -26.707031 31.394531 -27.859375 30.59375 -28.890625 C 29.789062 -29.929688 28.472656 -30.453125 26.640625 -30.453125 C 25.097656 -30.515625 23.925781 -30.085938 23.125 -29.171875 C 22.332031 -28.253906 21.921875 -27.1875 21.890625 -25.96875 C 21.859375 -24.757812 22.210938 -23.679688 22.953125 -22.734375 C 23.691406 -21.785156 24.863281 -21.3125 26.46875 -21.3125 L 51.59375 -21.3125 L 51.59375 0 L 26.46875 0 C 22.914062 0 19.597656 -0.664062 16.515625 -2 C 13.441406 -3.332031 10.71875 -5.179688 8.34375 -7.546875 C 5.976562 -9.910156 4.128906 -12.628906 2.796875 -15.703125 C 1.460938 -18.785156 0.796875 -22.101562 0.796875 -25.65625 C 0.796875 -30.332031 1.847656 -34.59375 3.953125 -38.4375 C 6.054688 -42.289062 9.046875 -45.382812 12.921875 -47.71875 C 16.796875 -50.0625 21.398438 -51.265625 26.734375 -51.328125 C 29.515625 -51.328125 32.3125 -51.054688 35.125 -50.515625 C 37.9375 -49.984375 40.582031 -48.976562 43.0625 -47.5 C 45.550781 -46.019531 47.625 -43.832031 49.28125 -40.9375 C 49.988281 -39.695312 50.503906 -38.21875 50.828125 -36.5 C 51.160156 -34.78125 51.28125 -33.015625 51.1875 -31.203125 C 51.101562 -29.398438 50.734375 -27.710938 50.078125 -26.140625 C 49.429688 -24.578125 48.425781 -23.351562 47.0625 -22.46875 Z M 29.125 -22.46875 "/></g></g></g><path stroke-linecap="butt" transform="matrix(0.748384, 0, 0, 0.748384, 182.808009, 12.538958)" fill="none" stroke-linejoin="miter" d="M 53.449308 125.912132 C 48.621194 125.912132 44.069718 125.003925 39.805319 123.18751 C 35.5357 121.355436 31.7776 118.8135 28.53624 115.572139 C 25.289659 112.325558 22.758162 108.567459 20.946966 104.30306 C 19.130552 100.033441 18.222344 95.481965 18.222344 90.653851 C 18.222344 85.752663 19.130552 81.180309 20.946966 76.952447 C 22.758162 72.724585 25.289659 68.987364 28.53624 65.740783 C 31.7776 62.499422 35.5357 59.967925 39.805319 58.15151 C 44.069718 56.335095 48.621194 55.426888 53.449308 55.426888 C 58.355715 55.426888 62.92285 56.335095 67.150712 58.15151 C 71.399452 59.967925 75.136674 62.499422 78.362376 65.740783 C 81.608956 68.987364 84.135234 72.724585 85.951649 76.952447 C 87.788942 81.180309 88.702369 85.752663 88.702369 90.653851 C 88.702369 95.481965 87.788942 100.033441 85.951649 104.30306 C 84.135234 108.567459 81.608956 112.325558 78.362376 115.572139 C 75.136674 118.8135 71.399452 121.355436 67.150712 123.18751 C 62.92285 125.003925 58.355715 125.912132 53.449308 125.912132 Z M 53.449308 84.599135 C 51.78948 84.599135 50.359315 85.199387 49.158811 86.399891 C 47.984405 87.574297 47.394592 88.994024 47.394592 90.653851 C 47.394592 92.318898 47.984405 93.743844 49.158811 94.944348 C 50.359315 96.123974 51.78948 96.708567 53.449308 96.708567 C 55.109135 96.708567 56.528861 96.123974 57.708487 94.944348 C 58.903771 93.743844 59.504023 92.318898 59.504023 90.653851 C 59.504023 88.994024 58.903771 87.574297 57.708487 86.399891 C 56.528861 85.199387 55.109135 84.599135 53.449308 84.599135 Z M 53.449308 84.599135 " stroke="#cee7f0" stroke-width="8.900025" stroke-opacity="1" stroke-miterlimit="4"/><g fill="#ffffff" fill-opacity="1"><g transform="translate(195.729319, 105.338523)"><g><path d="M 27.078125 1.421875 C 23.472656 1.421875 20.070312 0.742188 16.875 -0.609375 C 13.675781 -1.972656 10.863281 -3.867188 8.4375 -6.296875 C 6.007812 -8.722656 4.113281 -11.535156 2.75 -14.734375 C 1.382812 -17.929688 0.703125 -21.335938 0.703125 -24.953125 C 0.703125 -28.617188 1.382812 -32.035156 2.75 -35.203125 C 4.113281 -38.367188 6.007812 -41.164062 8.4375 -43.59375 C 10.863281 -46.019531 13.675781 -47.914062 16.875 -49.28125 C 20.070312 -50.644531 23.472656 -51.328125 27.078125 -51.328125 C 30.753906 -51.328125 34.175781 -50.644531 37.34375 -49.28125 C 40.507812 -47.914062 43.304688 -46.019531 45.734375 -43.59375 C 48.160156 -41.164062 50.050781 -38.367188 51.40625 -35.203125 C 52.769531 -32.035156 53.453125 -28.617188 53.453125 -24.953125 C 53.453125 -21.335938 52.769531 -17.929688 51.40625 -14.734375 C 50.050781 -11.535156 48.160156 -8.722656 45.734375 -6.296875 C 43.304688 -3.867188 40.507812 -1.972656 37.34375 -0.609375 C 34.175781 0.742188 30.753906 1.421875 27.078125 1.421875 Z M 27.078125 -29.484375 C 25.835938 -29.484375 24.769531 -29.035156 23.875 -28.140625 C 22.988281 -27.253906 22.546875 -26.191406 22.546875 -24.953125 C 22.546875 -23.710938 22.988281 -22.644531 23.875 -21.75 C 24.769531 -20.863281 25.835938 -20.421875 27.078125 -20.421875 C 28.328125 -20.421875 29.394531 -20.863281 30.28125 -21.75 C 31.164062 -22.644531 31.609375 -23.710938 31.609375 -24.953125 C 31.609375 -26.191406 31.164062 -27.253906 30.28125 -28.140625 C 29.394531 -29.035156 28.328125 -29.484375 27.078125 -29.484375 Z M 27.078125 -29.484375 "/></g></g></g></svg>